<svg width="517" height="179" viewBox="0 0 517 179" fill="none" xmlns="http://www.w3.org/2000/svg">
<path d="M26 60C26 61.0364 26 62.0728 26 63.1091C26 64.7353 26.2851 66.347 26.385 67.97C26.4436 68.9207 26.5791 69.8694 26.6472 70.8213C26.7327 72.0151 27.0879 73.1861 27.2125 74.3816C27.4503 76.6628 27.9317 78.9591 28.6216 81.1611C29.0118 82.4063 29.2773 83.7016 29.7317 84.9261C30.1939 86.1715 30.8029 87.3739 31.2924 88.6116C32.2269 90.9746 33.5855 93.1503 34.6636 95.4517C35.7661 97.805 37.442 99.9753 38.9933 102.087C39.6494 102.98 40.3448 103.846 41.0005 104.737C41.2908 105.132 41.5884 105.714 42 106" stroke="#BEEAB8" stroke-width="3" stroke-linecap="round"/>
<path d="M485 96C485 96.9012 485 97.8024 485 98.7036C485 100.118 485.249 101.519 485.337 102.93C485.388 103.757 485.507 104.582 485.566 105.41C485.641 106.448 485.952 107.466 486.061 108.506C486.269 110.489 486.69 112.486 487.294 114.401C487.635 115.484 487.868 116.61 488.265 117.675C488.67 118.758 489.203 119.803 489.631 120.88C490.449 122.934 491.637 124.826 492.581 126.828C493.545 128.874 495.012 130.761 496.369 132.597C496.943 133.374 497.552 134.127 498.125 134.902C498.379 135.245 498.64 135.752 499 136" stroke="#BEEAB8" stroke-width="3" stroke-linecap="round"/>
<path d="M33 38.92C33.1026 38.6685 33.1221 38.391 33.2029 38.1325C33.3568 37.6403 33.609 37.1983 33.733 36.694C33.9467 35.825 34.1013 34.9078 34.4508 34.0757C34.872 33.073 35.4184 32.0593 36.0198 31.1465C36.5524 30.338 37.1516 29.3929 37.9552 28.813C39.4271 27.7507 41.0606 27.0732 42.7771 26.4824C43.7356 26.1525 44.565 26 45.5818 26C46.3206 26 46.7238 26.0973 47.284 26.587C47.8925 27.1189 48.4317 27.8817 48.8408 28.5631C49.7456 30.0701 50.084 31.814 49.9827 33.5439C49.8666 35.5273 48.6235 37.5695 47.0841 38.8619C45.0711 40.5518 42.713 41.6574 40.2329 42.5583C39.6197 42.781 39.0198 42.8507 38.3974 43" stroke="#B49BD1" stroke-width="3" stroke-linecap="round"/>
<path d="M491 78.4C491.091 78.1781 491.108 77.9333 491.179 77.7051C491.315 77.2709 491.537 76.8809 491.647 76.4359C491.835 75.6691 491.972 74.8598 492.28 74.1256C492.652 73.2408 493.134 72.3464 493.664 71.541C494.134 70.8276 494.663 69.9938 495.372 69.4821C496.671 68.5447 498.112 67.9469 499.627 67.4256C500.473 67.1345 501.204 67 502.102 67C502.753 67 503.109 67.0859 503.604 67.5179C504.14 67.9873 504.616 68.6603 504.977 69.2615C505.775 70.5913 506.074 72.13 505.985 73.6564C505.882 75.4064 504.785 77.2084 503.427 78.3487C501.651 79.8399 499.57 80.8154 497.382 81.6103C496.841 81.8068 496.312 81.8683 495.762 82" stroke="#D78288" stroke-width="3" stroke-linecap="round"/>
<path d="M37.9795 44.3947C38.0354 44.2206 38.4167 44.1077 38.562 44.0359C39.3101 43.6663 40.0675 43.315 40.7994 42.9178C41.8253 42.361 42.9109 41.7383 44.0291 41.3602C45.2882 40.9344 46.5437 40.5313 47.8253 40.1673C48.6253 39.9401 49.4406 39.9278 50.2195 40.2331C51.1728 40.6067 52.1285 41.0308 52.8762 41.713C53.8766 42.6256 54.7243 43.7458 55.3249 44.9239C56.1276 46.4983 56.6083 48.0535 56.8485 49.7791C56.9495 50.5047 57.0553 51.25 56.9669 51.9824C56.8778 52.7205 56.5176 53.4148 56.0803 54.0244C55.6376 54.6415 55.2001 55.2645 54.6047 55.7644C54.0632 56.2189 53.4441 56.6297 52.825 56.9871C51.611 57.688 50.0971 58.0322 48.6767 57.9976C47.921 57.9793 47.1686 57.9858 46.4361 57.7943C45.6072 57.5777 44.7884 57.2999 43.9971 56.9841C42.9091 56.5501 41.8147 56.0973 40.809 55.5102C39.8095 54.9267 38.8968 54.1602 37.8578 53.6507C37.6249 53.5364 37.1206 53.2302 37 53.0049" stroke="#B49BD1" stroke-width="3" stroke-linecap="round"/>
<path d="M494.882 82.9064C494.932 82.7517 495.275 82.6513 495.406 82.5875C496.079 82.2589 496.761 81.9467 497.419 81.5936C498.343 81.0987 499.32 80.5452 500.326 80.2091C501.459 79.8306 502.589 79.4723 503.743 79.1487C504.463 78.9468 505.197 78.9358 505.898 79.2072C506.756 79.5393 507.616 79.9163 508.289 80.5226C509.189 81.3339 509.952 82.3296 510.492 83.3768C511.215 84.7762 511.647 86.1587 511.864 87.6925C511.955 88.3375 512.05 89 511.97 89.6511C511.89 90.3072 511.566 90.9243 511.172 91.4661C510.774 92.0147 510.38 92.5685 509.844 93.0128C509.357 93.4168 508.8 93.782 508.243 94.0997C507.15 94.7227 505.787 95.0286 504.509 94.9979C503.829 94.9816 503.152 94.9873 502.493 94.8172C501.746 94.6246 501.01 94.3777 500.297 94.097C499.318 93.7112 498.333 93.3087 497.428 92.7869C496.529 92.2682 495.707 91.5868 494.772 91.1339C494.562 91.0324 494.109 90.7601 494 90.5599" stroke="#D78288" stroke-width="3" stroke-linecap="round"/>
<path d="M32.9797 39.0205C32.9797 36.3733 33.0274 33.7314 32.9765 31.0836C32.9492 29.6629 32.8145 28.1085 32.1962 26.8048C31.7052 25.7696 31.3528 24.7733 30.6198 23.8609C30.0889 23.2 29.527 22.4096 28.7401 22.0017C28.0884 21.6639 27.2904 21.48 26.5761 21.3147C25.8993 21.158 25.2124 21.1132 24.5196 21.0676C24.0285 21.0353 23.4571 20.9366 22.9716 21.0616C22.229 21.2527 21.5414 21.6985 20.8929 22.077C19.4091 22.9431 18.0477 24.7198 18.0244 26.4191C18.0095 27.5044 17.9296 28.645 18.1729 29.7096C18.3968 30.6896 18.7357 31.7315 19.1933 32.6385C19.8754 33.9904 20.7565 35.2483 21.49 36.5738C21.9224 37.3552 22.296 38.1569 22.7062 38.9482C22.8364 39.1993 23.0002 39.4549 23.1137 39.7075C23.1475 39.7827 23.3128 40.0308 23.3128 39.9968" stroke="#B49BD1" stroke-width="3" stroke-linecap="round"/>
<path d="M490.982 78.1752C490.982 75.9459 491.024 73.7212 490.98 71.4915C490.956 70.2951 490.839 68.9861 490.303 67.8883C489.878 67.0165 489.572 66.1775 488.937 65.4091C488.477 64.8526 487.99 64.187 487.308 63.8435C486.743 63.559 486.052 63.4042 485.433 63.265C484.846 63.133 484.251 63.0953 483.65 63.0569C483.225 63.0297 482.73 62.9466 482.309 63.0518C481.665 63.2128 481.069 63.5882 480.507 63.907C479.221 64.6363 478.041 66.1325 478.021 67.5635C478.008 68.4774 477.939 69.4379 478.15 70.3344C478.344 71.1597 478.638 72.0371 479.034 72.8008C479.625 73.9393 480.389 74.9985 481.025 76.1148C481.399 76.7728 481.723 77.4479 482.079 78.1143C482.192 78.3257 482.334 78.541 482.432 78.7537C482.461 78.817 482.604 79.026 482.604 78.9973" stroke="#D78288" stroke-width="3" stroke-linecap="round"/>
<path d="M23 39.6985C22.915 39.6796 22.8645 39.5667 22.8077 39.5066C22.5744 39.2597 22.4198 38.9864 22.1533 38.7545C21.0015 37.7525 19.6533 36.9409 18.3292 36.1888C15.7703 34.7355 13.0333 33.824 10.0608 34.0286C8.81411 34.1144 7.22603 34.4087 6.36382 35.3965C6.13537 35.6583 5.88923 35.897 5.68771 36.1826C5.46058 36.5046 5.35289 36.967 5.22559 37.3371C4.97058 38.0784 4.97165 38.9788 5.0364 39.7542C5.11953 40.7497 5.52114 41.7352 5.8955 42.651C6.35568 43.7768 7.08681 44.8904 7.79669 45.8759C8.40203 46.7164 9.04152 47.5266 9.99872 47.9712C11.0518 48.4604 12.2932 48.8245 13.4537 48.9337C15.2615 49.1039 16.9809 48.981 18.6208 48.1538C19.0928 47.9157 19.604 47.6617 20.097 47.4977" stroke="#B49BD1" stroke-width="3" stroke-linecap="round"/>
<path d="M482 78.9387C481.924 78.9223 481.88 78.8244 481.829 78.7724C481.622 78.5584 481.484 78.3215 481.247 78.1206C480.224 77.2522 479.025 76.5488 477.848 75.897C475.574 74.6374 473.141 73.8475 470.498 74.0248C469.39 74.0991 467.979 74.3542 467.212 75.2103C467.009 75.4372 466.79 75.6441 466.611 75.8916C466.409 76.1706 466.314 76.5714 466.201 76.8921C465.974 77.5346 465.975 78.315 466.032 78.987C466.106 79.8497 466.463 80.7038 466.796 81.4976C467.205 82.4732 467.855 83.4383 468.486 84.2925C469.024 85.0209 469.592 85.723 470.443 86.1084C471.379 86.5324 472.483 86.8479 473.514 86.9426C475.121 87.0901 476.65 86.9835 478.107 86.2666C478.527 86.0603 478.981 85.8401 479.42 85.698" stroke="#D78288" stroke-width="3" stroke-linecap="round"/>
<path d="M20.5073 48C20.4033 48.0107 20.298 48.1024 20.2155 48.1531C19.9123 48.3395 19.5922 48.5062 19.3084 48.7184C18.6474 49.2126 17.9732 49.7151 17.2594 50.1434C17.047 50.2709 16.8465 50.3988 16.6378 50.5321C16.3579 50.7106 16.0156 50.7663 15.7338 50.9531C14.8863 51.515 14.0735 52.2876 13.4565 53.0641C13.1839 53.407 12.9248 53.7573 12.6857 54.1211C12.4574 54.4685 12.1782 54.7916 12.1275 55.2075C12.0396 55.9286 11.9941 56.6296 12.0006 57.3568C12.0066 58.0265 12.0882 58.8154 12.3463 59.4443C12.6966 60.2977 13.3615 60.8957 14.0813 61.5053C15.3959 62.6185 17.2655 62.998 18.9912 62.998C19.9268 62.998 20.8018 63.0417 21.6872 62.7212C22.6172 62.3847 23.3888 61.7968 24.1485 61.2079C24.6462 60.8221 25.1108 60.1448 25.3824 59.6033C25.7425 58.8851 25.8625 58.1909 25.9596 57.4157C26.0138 56.9836 25.9882 56.543 25.9882 56.1085C25.9882 55.8357 26.0386 55.5101 25.9311 55.2605" stroke="#B49BD1" stroke-width="3" stroke-linecap="round"/>
<path d="M479.9 86C479.803 86.0093 479.705 86.0887 479.629 86.1327C479.347 86.2943 479.05 86.4387 478.786 86.6226C478.173 87.051 477.547 87.4864 476.884 87.8576C476.687 87.9681 476.5 88.079 476.306 88.1944C476.047 88.3492 475.729 88.3974 475.467 88.5593C474.68 89.0463 473.925 89.7159 473.352 90.3889C473.099 90.6861 472.859 90.9897 472.637 91.3049C472.425 91.606 472.165 91.886 472.118 92.2465C472.037 92.8714 471.995 93.4789 472.001 94.1092C472.006 94.6897 472.082 95.3733 472.322 95.9184C472.647 96.658 473.264 97.1763 473.933 97.7046C475.153 98.6693 476.889 98.9983 478.492 98.9983C479.361 98.9983 480.173 99.0361 480.995 98.7584C481.859 98.4668 482.575 97.9572 483.281 97.4468C483.743 97.1125 484.174 96.5255 484.426 96.0562C484.761 95.4338 484.872 94.8321 484.963 94.1603C485.013 93.7858 484.989 93.4039 484.989 93.0273C484.989 92.7909 485.036 92.5088 484.936 92.2924" stroke="#D78288" stroke-width="3" stroke-linecap="round"/>
<path d="M26.1395 56.2082C25.9273 56.4391 26.0221 57.0299 26.0158 57.3153C26.0112 57.5215 26.0158 57.7283 26.0158 57.9346C26.0158 58.6786 26.2123 59.3783 26.2667 60.1129C26.2904 60.432 26.4726 60.8167 26.5864 61.1212C26.7615 61.5897 27.0391 62.0148 27.3049 62.4467C27.7453 63.1622 28.1874 63.8704 28.8313 64.4724C30.0706 65.6309 31.6592 66.275 33.3658 66.7524C34.198 66.9852 35.061 66.9186 35.9235 66.9678C36.4025 66.9951 36.9805 67.0433 37.443 66.9169C38.0584 66.7489 38.6816 66.5066 39.2582 66.2557C39.642 66.0886 39.9165 65.7937 40.262 65.5795C40.5499 65.4009 40.8501 65.1875 41.0837 64.9541C41.8074 64.2309 42.3264 63.2716 42.665 62.3689C42.9811 61.5265 43.1201 60.5495 42.8747 59.676C42.6471 58.8653 42.3564 57.9187 41.9122 57.1776C41.3047 56.1643 40.5645 55.3051 39.5263 54.6224C39.2432 54.4362 39.0335 54.3143 38.715 54.2035C38.5349 54.1408 38.4302 54 38.2062 54" stroke="#B49BD1" stroke-width="3" stroke-linecap="round"/>
<path d="M485.123 93.0383C484.936 93.2515 485.019 93.7968 485.014 94.0602C485.01 94.2507 485.014 94.4415 485.014 94.632C485.014 95.3188 485.187 95.9646 485.235 96.6427C485.256 96.9373 485.417 97.2923 485.517 97.5734C485.672 98.0059 485.917 98.3983 486.151 98.797C486.54 99.4574 486.93 100.111 487.498 100.667C488.592 101.736 489.993 102.331 491.499 102.771C492.234 102.986 492.995 102.925 493.756 102.97C494.179 102.996 494.689 103.04 495.097 102.923C495.64 102.768 496.19 102.545 496.698 102.313C497.037 102.159 497.279 101.887 497.584 101.689C497.838 101.524 498.103 101.327 498.309 101.111C498.948 100.444 499.406 99.5584 499.704 98.7252C499.983 97.9475 500.106 97.0457 499.889 96.2394C499.689 95.4911 499.432 94.6173 499.04 93.9332C498.504 92.9978 497.851 92.2047 496.935 91.5745C496.685 91.4026 496.5 91.2902 496.219 91.1878C496.06 91.1299 495.968 91 495.77 91" stroke="#D78288" stroke-width="3" stroke-linecap="round"/>
<path d="M31 87C31 86.3441 31.0024 85.6891 31.0929 85.0382C31.2719 83.7505 31.609 82.5011 31.9407 81.2457C32.2489 80.0794 32.4998 78.9401 33.0435 77.8527C33.5387 76.8622 34.0933 75.8817 34.7213 74.9667C35.4609 73.8892 36.5069 72.8986 37.6443 72.2413C38.2199 71.9086 38.7969 71.565 39.3913 71.2663C39.5634 71.1798 39.7955 71 40 71" stroke="#BEEAB8" stroke-width="3" stroke-linecap="round"/>
<path d="M489 120C489 119.426 489.002 118.853 489.083 118.283C489.242 117.157 489.541 116.064 489.836 114.965C490.11 113.944 490.333 112.948 490.816 111.996C491.257 111.129 491.75 110.271 492.308 109.471C492.965 108.528 493.895 107.661 494.906 107.086C495.418 106.795 495.931 106.494 496.459 106.233C496.612 106.157 496.818 106 497 106" stroke="#BEEAB8" stroke-width="3" stroke-linecap="round"/>
<path d="M40.5039 71C40.5039 71.3463 40.5307 71.6726 40.5969 72.0136C40.6871 72.4788 40.644 72.957 40.7519 73.415C40.9728 74.3527 41 75.3953 41 76.3537C41 79.0831 41.0174 81.6942 40.0077 84.2857C39.5876 85.3641 39.1369 86.5287 38.4539 87.4728C37.8363 88.3263 37.424 89.1856 36.5624 89.8299C35.7185 90.4611 34.8486 91.1321 33.8958 91.585C33.6514 91.7012 33.1306 91.7422 33 92" stroke="#BEEAB8" stroke-width="3" stroke-linecap="round"/>
<path d="M497.566 106C497.566 106.297 497.589 106.577 497.647 106.869C497.726 107.268 497.689 107.677 497.783 108.07C497.976 108.874 498 109.767 498 110.589C498 112.928 498.015 115.166 497.132 117.388C496.764 118.312 496.37 119.31 495.772 120.12C495.232 120.851 494.871 121.588 494.117 122.14C493.379 122.681 492.618 123.256 491.784 123.644C491.57 123.744 491.114 123.779 491 124" stroke="#BEEAB8" stroke-width="3" stroke-linecap="round"/>
<path d="M27 81C26.7224 80.6867 26.5527 80.1757 26.3943 79.7894C26.057 78.967 25.5942 78.1014 25.0184 77.4217C23.6745 75.8354 21.7783 75.0508 20.0347 74.0441C19.5437 73.7606 19.0198 73.5717 18.504 73.3418C17.8895 73.068 17.2783 72.7734 16.631 72.586C15.8305 72.3543 14.9498 72.0987 14.1161 72.0443C13.5012 72.0041 12.8123 71.9689 12.2003 72.0443C11.9626 72.0736 11.9339 72.1403 12.1279 72.2717" stroke="#BEEAB8" stroke-width="3" stroke-linecap="round"/>
<path d="M485 115C484.759 114.721 484.612 114.267 484.475 113.924C484.183 113.193 483.782 112.423 483.283 111.819C482.118 110.409 480.475 109.712 478.963 108.817C478.538 108.565 478.084 108.397 477.637 108.193C477.104 107.949 476.575 107.687 476.014 107.521C475.32 107.315 474.556 107.088 473.834 107.039C473.301 107.004 472.704 106.972 472.174 107.039C471.968 107.065 471.943 107.125 472.111 107.241" stroke="#BEEAB8" stroke-width="3" stroke-linecap="round"/>
<path d="M12 72C12.0201 72.4177 12.303 72.8374 12.4633 73.2132C12.6926 73.7505 12.9024 74.2902 13.1394 74.8248C13.4327 75.4865 13.6961 76.1319 14.0146 76.7816C14.3877 77.5428 14.9296 78.2985 15.432 78.9767C16.5268 80.4548 17.8951 81.6085 19.3479 82.691C20.5349 83.5754 21.9402 84.3889 23.3668 84.7438C24.5165 85.0299 25.7071 84.936 26.8571 84.936C27.1668 84.936 27.791 84.5666 28 85" stroke="#BEEAB8" stroke-width="3" stroke-linecap="round"/>
<path d="M472 107C472.018 107.353 472.265 107.709 472.405 108.027C472.606 108.481 472.79 108.938 472.997 109.39C473.254 109.95 473.484 110.496 473.763 111.046C474.089 111.69 474.563 112.329 475.003 112.903C475.961 114.154 477.158 115.13 478.429 116.046C479.468 116.795 480.698 117.483 481.946 117.783C482.952 118.025 483.994 117.946 485 117.946C485.271 117.946 485.817 117.633 486 118" stroke="#BEEAB8" stroke-width="3" stroke-linecap="round"/>
<path d="M23.4808 41.1279C23.0333 41.2524 22.5031 41.7122 22.2765 42.0562C21.8454 42.7107 21.2197 43.2604 21.1407 44.0356C21.041 45.0132 20.8781 46.0116 21.1475 46.9862C21.5872 48.577 22.4643 50.1907 23.5151 51.562C24.4185 52.7411 25.2965 53.6624 26.8132 54.2956C27.4866 54.5767 28.1277 54.844 28.8831 54.9297C29.6602 55.0178 30.4205 55.0193 31.1993 54.9554C32.6577 54.8356 34.0338 54.33 35.2809 53.6929C35.8044 53.4254 36.3611 53.1931 36.7213 52.7646C37.1186 52.2919 37.5988 51.8404 37.9187 51.3278C38.5462 50.3226 39.0089 49.3277 38.9999 48.1887C38.9917 47.1568 38.8487 46.2004 38.473 45.2181C38.1314 44.3249 37.3237 43.3874 36.5092 42.756C35.8081 42.2125 34.9377 41.8073 34.1279 41.3906C33.5585 41.0976 32.9478 40.8359 32.3078 40.6651C30.2603 40.1187 28.1226 39.7237 26.0058 40.2424C25.3854 40.3944 24.7987 40.4777 24.2335 40.7451C24.0112 40.8503 23.5068 40.9599 23.4193 41.1793" stroke="#FFE5A4" stroke-width="3" stroke-linecap="round"/>
<path d="M482.205 79.9775C481.807 80.0854 481.336 80.4839 481.135 80.782C480.751 81.3492 480.195 81.8257 480.125 82.4975C480.036 83.3448 479.892 84.21 480.131 85.0547C480.522 86.4334 481.302 87.832 482.236 89.0204C483.039 90.0423 483.819 90.8408 485.167 91.3895C485.766 91.6331 486.336 91.8648 487.007 91.939C487.698 92.0154 488.374 92.0167 489.066 91.9613C490.362 91.8575 491.586 91.4193 492.694 90.8672C493.159 90.6354 493.654 90.434 493.974 90.0626C494.328 89.653 494.754 89.2617 495.039 88.8174C495.597 87.9462 496.008 87.084 496 86.0969C495.993 85.2025 495.866 84.3737 495.532 83.5224C495.228 82.7483 494.51 81.9357 493.786 81.3885C493.163 80.9175 492.389 80.5663 491.669 80.2052C491.163 79.9513 490.62 79.7245 490.051 79.5764C488.231 79.1029 486.331 78.7606 484.45 79.2101C483.898 79.3418 483.377 79.414 482.874 79.6458C482.677 79.7369 482.228 79.8319 482.15 80.022" stroke="#FFE5A4" stroke-width="3" stroke-linecap="round"/>
<path d="M323 78C323 79.5771 323 81.1542 323 82.7313C323 85.206 323.41 87.6585 323.554 90.1283C323.638 91.5749 323.832 93.0187 323.93 94.4672C324.053 96.2838 324.564 98.0658 324.743 99.8851C325.085 103.356 325.777 106.851 326.769 110.202C327.329 112.097 327.711 114.068 328.364 115.931C329.029 117.826 329.904 119.656 330.608 121.539C331.951 125.135 333.904 128.446 335.454 131.948C337.039 135.529 339.448 138.832 341.678 142.045C342.621 143.405 343.621 144.723 344.563 146.079C344.981 146.679 345.408 147.565 346 148" stroke="#BEEAB8" stroke-width="3" stroke-linecap="round"/>
<path d="M98 100.485C98 101.837 98 103.189 98 104.54C98 106.662 97.6436 108.764 97.5187 110.881C97.4455 112.121 97.2762 113.358 97.191 114.6C97.0842 116.157 96.6402 117.684 96.4844 119.244C96.1871 122.219 95.5853 125.214 94.723 128.086C94.2353 129.711 93.9034 131.4 93.3354 132.997C92.7577 134.622 91.9964 136.19 91.3845 137.805C90.2164 140.887 88.5182 143.725 87.1705 146.726C85.7924 149.796 83.6975 152.627 81.7583 155.381C80.9382 156.546 80.0691 157.676 79.2494 158.838C78.8865 159.353 78.5145 160.112 78 160.485" stroke="#BEEAB8" stroke-width="3" stroke-linecap="round"/>
<path d="M249 96.485C249 97.8368 249 99.1886 249 100.54C249 102.662 248.644 104.764 248.519 106.881C248.446 108.121 248.276 109.358 248.191 110.6C248.084 112.157 247.64 113.684 247.484 115.244C247.187 118.219 246.585 121.214 245.723 124.086C245.235 125.711 244.903 127.4 244.335 128.997C243.758 130.622 242.996 132.19 242.385 133.805C241.216 136.887 239.518 139.725 238.171 142.726C236.792 145.796 234.697 148.627 232.758 151.381C231.938 152.546 231.069 153.676 230.249 154.838C229.886 155.353 229.515 156.112 229 156.485" stroke="#BEEAB8" stroke-width="3" stroke-linecap="round"/>
<path d="M167 75C167 75.9913 167 76.9826 167 77.974C167 79.5295 166.733 81.0711 166.639 82.6235C166.584 83.5328 166.457 84.4403 166.393 85.3508C166.313 86.4927 165.98 87.6128 165.863 88.7563C165.64 90.9383 165.189 93.1348 164.542 95.241C164.176 96.4322 163.928 97.6711 163.502 98.8424C163.068 100.034 162.497 101.184 162.038 102.368C161.162 104.628 159.889 106.709 158.878 108.91C157.844 111.161 156.273 113.237 154.819 115.257C154.204 116.111 153.552 116.94 152.937 117.792C152.665 118.17 152.386 118.727 152 119" stroke="#BEEAB8" stroke-width="3" stroke-linecap="round"/>
<path d="M430 75C430 75.9913 430 76.9826 430 77.974C430 79.5295 429.733 81.0711 429.639 82.6235C429.584 83.5328 429.457 84.4403 429.393 85.3508C429.313 86.4927 428.98 87.6128 428.863 88.7563C428.64 90.9383 428.189 93.1348 427.542 95.241C427.176 96.4322 426.928 97.6711 426.502 98.8424C426.068 100.034 425.497 101.184 425.038 102.368C424.162 104.628 422.889 106.709 421.878 108.91C420.844 111.161 419.273 113.237 417.819 115.257C417.204 116.111 416.552 116.94 415.937 117.792C415.665 118.17 415.386 118.727 415 119" stroke="#BEEAB8" stroke-width="3" stroke-linecap="round"/>
<path d="M335 47C335.151 46.6301 335.18 46.2221 335.298 45.8419C335.525 45.1181 335.896 44.4681 336.078 43.7265C336.392 42.4486 336.62 41.0998 337.134 39.8761C337.753 38.4014 338.556 36.9107 339.441 35.5684C340.224 34.3794 341.105 32.9896 342.287 32.1368C344.452 30.5745 346.854 29.5782 349.378 28.7094C350.788 28.2242 352.007 28 353.503 28C354.589 28 355.182 28.1431 356.006 28.8632C356.901 29.6455 357.694 30.7672 358.295 31.7692C359.626 33.9854 360.124 36.55 359.975 39.094C359.804 42.0107 357.976 45.014 355.712 46.9145C352.752 49.3998 349.284 51.0257 345.637 52.3504C344.735 52.6779 343.853 52.7805 342.937 53" stroke="#B49BD1" stroke-width="3" stroke-linecap="round"/>
<path d="M89 73.205C88.8673 72.8796 88.842 72.5205 88.7374 72.1859C88.5382 71.549 88.2119 70.977 88.0514 70.3244C87.7749 69.1998 87.5748 68.0128 87.1225 66.936C86.5774 65.6383 85.8703 64.3264 85.0921 63.1452C84.4028 62.0989 83.6273 60.8759 82.5874 60.1254C80.6825 58.7506 78.5686 57.8739 76.3473 57.1093C75.1068 56.6824 74.0335 56.485 72.7177 56.485C71.7616 56.485 71.2398 56.611 70.5148 57.2447C69.7274 57.9331 69.0295 58.9201 68.5001 59.802C67.3293 61.7522 66.8913 64.009 67.0224 66.2478C67.1727 68.8145 68.7813 71.4574 70.7735 73.1298C73.3786 75.3168 76.4302 76.7476 79.6398 77.9134C80.4333 78.2016 81.2097 78.2919 82.0151 78.485" stroke="#D78288" stroke-width="3" stroke-linecap="round"/>
<path d="M240 69.205C239.867 68.8796 239.842 68.5205 239.737 68.1859C239.538 67.549 239.212 66.977 239.051 66.3244C238.775 65.1998 238.575 64.0128 238.122 62.936C237.577 61.6383 236.87 60.3264 236.092 59.1452C235.403 58.0989 234.627 56.8759 233.587 56.1254C231.683 54.7506 229.569 53.8739 227.347 53.1093C226.107 52.6824 225.034 52.485 223.718 52.485C222.762 52.485 222.24 52.611 221.515 53.2447C220.727 53.9331 220.03 54.9201 219.5 55.802C218.329 57.7522 217.891 60.009 218.022 62.2478C218.173 64.8145 219.781 67.4574 221.774 69.1298C224.379 71.3168 227.43 72.7476 230.64 73.9134C231.433 74.2016 232.21 74.2919 233.015 74.485" stroke="#D78288" stroke-width="3" stroke-linecap="round"/>
<path d="M160 55.16C159.897 54.9233 159.878 54.6622 159.797 54.4188C159.643 53.9556 159.391 53.5396 159.267 53.065C159.053 52.2471 158.899 51.3838 158.549 50.6007C158.128 49.6569 157.582 48.7028 156.98 47.8438C156.448 47.0828 155.848 46.1933 155.045 45.6475C153.573 44.6477 151.939 44.0101 150.223 43.454C149.264 43.1435 148.435 43 147.418 43C146.679 43 146.276 43.0916 145.716 43.5525C145.107 44.0531 144.568 44.771 144.159 45.4123C143.254 46.8307 142.916 48.472 143.017 50.1002C143.133 51.9669 144.376 53.889 145.916 55.1053C147.929 56.6958 150.287 57.7364 152.767 58.5843C153.38 58.7939 153.98 58.8595 154.603 59" stroke="#8092DF" stroke-width="3" stroke-linecap="round"/>
<path d="M423 55.16C422.897 54.9233 422.878 54.6622 422.797 54.4188C422.643 53.9556 422.391 53.5396 422.267 53.065C422.053 52.2471 421.899 51.3838 421.549 50.6007C421.128 49.6569 420.582 48.7028 419.98 47.8438C419.448 47.0828 418.848 46.1933 418.045 45.6475C416.573 44.6477 414.939 44.0101 413.223 43.454C412.264 43.1435 411.435 43 410.418 43C409.679 43 409.276 43.0916 408.716 43.5525C408.107 44.0531 407.568 44.771 407.159 45.4123C406.254 46.8307 405.916 48.472 406.017 50.1002C406.133 51.9669 407.376 53.889 408.916 55.1053C410.929 56.6958 413.287 57.7364 415.767 58.5843C416.38 58.7939 416.98 58.8595 417.603 59" stroke="#8092DF" stroke-width="3" stroke-linecap="round"/>
<path d="M342.42 54.592C342.501 54.3309 343.054 54.1616 343.265 54.0539C344.35 53.4994 345.448 52.9726 346.509 52.3767C347.997 51.5415 349.571 50.6075 351.192 50.0403C353.018 49.4016 354.838 48.797 356.697 48.251C357.857 47.9102 359.039 47.8917 360.168 48.3496C361.551 48.9101 362.936 49.5462 364.021 50.5695C365.471 51.9385 366.7 53.6187 367.571 55.3858C368.735 57.7474 369.432 60.0803 369.78 62.6686C369.927 63.757 370.08 64.875 369.952 65.9737C369.823 67.0808 369.301 68.1223 368.666 69.0366C368.024 69.9622 367.39 70.8968 366.527 71.6465C365.742 72.3284 364.844 72.9446 363.946 73.4807C362.186 74.532 359.991 75.0482 357.931 74.9965C356.835 74.9689 355.744 74.9786 354.682 74.6915C353.48 74.3666 352.293 73.9498 351.146 73.4762C349.568 72.8251 347.981 72.146 346.523 71.2654C345.074 70.3901 343.75 69.2403 342.244 68.476C341.906 68.3047 341.175 67.8452 341 67.5074" stroke="#B49BD1" stroke-width="3" stroke-linecap="round"/>
<path d="M81.7757 79.3446C81.7058 79.1125 81.2291 78.962 81.0475 78.8663C80.1124 78.3734 79.1656 77.9051 78.2507 77.3754C76.9684 76.6331 75.6114 75.8028 74.2137 75.2986C72.6398 74.7309 71.0704 74.1935 69.4684 73.7081C68.4684 73.4052 67.4493 73.3887 66.4756 73.7958C65.284 74.294 64.0894 74.8595 63.1547 75.769C61.9042 76.9859 60.8446 78.4794 60.0939 80.0502C59.0905 82.1494 58.4896 84.2231 58.1894 86.5238C58.0631 87.4913 57.9308 88.485 58.0413 89.4616C58.1527 90.4458 58.603 91.3715 59.1496 92.1842C59.7031 93.007 60.2498 93.8378 60.9941 94.5042C61.671 95.1103 62.4448 95.658 63.2187 96.1346C64.7362 97.069 66.6286 97.5279 68.4041 97.4819C69.3487 97.4574 70.2893 97.4661 71.2049 97.2108C72.241 96.922 73.2645 96.5515 74.2537 96.1306C75.6136 95.5518 76.9816 94.9481 78.2387 94.1654C79.4882 93.3874 80.6289 92.3653 81.9277 91.6859C82.2189 91.5336 82.8493 91.1253 83 90.8249" stroke="#D78288" stroke-width="3" stroke-linecap="round"/>
<path d="M232.776 75.3446C232.706 75.1125 232.229 74.962 232.047 74.8663C231.112 74.3734 230.166 73.9051 229.251 73.3754C227.968 72.6331 226.611 71.8028 225.214 71.2986C223.64 70.7309 222.07 70.1935 220.468 69.7081C219.468 69.4052 218.449 69.3887 217.476 69.7958C216.284 70.294 215.089 70.8595 214.155 71.769C212.904 72.9859 211.845 74.4794 211.094 76.0502C210.091 78.1494 209.49 80.2231 209.189 82.5238C209.063 83.4913 208.931 84.485 209.041 85.4616C209.153 86.4458 209.603 87.3715 210.15 88.1842C210.703 89.007 211.25 89.8378 211.994 90.5042C212.671 91.1103 213.445 91.658 214.219 92.1346C215.736 93.069 217.629 93.5279 219.404 93.4819C220.349 93.4574 221.289 93.4661 222.205 93.2108C223.241 92.922 224.265 92.5515 225.254 92.1306C226.614 91.5518 227.982 90.9481 229.239 90.1654C230.488 89.3874 231.629 88.3653 232.928 87.6859C233.219 87.5336 233.849 87.1253 234 86.8249" stroke="#D78288" stroke-width="3" stroke-linecap="round"/>
<path d="M154.07 59.3947C154.016 59.2206 153.654 59.1077 153.516 59.0359C152.805 58.6663 152.086 58.315 151.391 57.9178C150.416 57.361 149.385 56.7383 148.322 56.3602C147.126 55.9344 145.934 55.5313 144.716 55.1673C143.956 54.9401 143.181 54.9278 142.441 55.2331C141.536 55.6067 140.628 56.0308 139.918 56.713C138.967 57.6256 138.162 58.7458 137.591 59.9239C136.829 61.4983 136.372 63.0535 136.144 64.7791C136.048 65.5047 135.947 66.25 136.031 66.9824C136.116 67.7205 136.458 68.4148 136.874 69.0244C137.294 69.6415 137.71 70.2645 138.276 70.7644C138.79 71.2189 139.378 71.6297 139.966 71.9871C141.12 72.688 142.558 73.0322 143.907 72.9976C144.625 72.9793 145.34 72.9858 146.036 72.7943C146.823 72.5777 147.601 72.2999 148.353 71.9841C149.386 71.5501 150.426 71.0973 151.381 70.5102C152.331 69.9267 153.198 69.1602 154.185 68.6507C154.406 68.5364 154.885 68.2302 155 68.0049" stroke="#8092DF" stroke-width="3" stroke-linecap="round"/>
<path d="M417.07 59.3947C417.016 59.2206 416.654 59.1077 416.516 59.0359C415.805 58.6663 415.086 58.315 414.391 57.9178C413.416 57.361 412.385 56.7383 411.322 56.3602C410.126 55.9344 408.934 55.5313 407.716 55.1673C406.956 54.9401 406.181 54.9278 405.441 55.2331C404.536 55.6067 403.628 56.0308 402.918 56.713C401.967 57.6256 401.162 58.7458 400.591 59.9239C399.829 61.4983 399.372 63.0535 399.144 64.7791C399.048 65.5047 398.947 66.25 399.031 66.9824C399.116 67.7205 399.458 68.4148 399.874 69.0244C400.294 69.6415 400.71 70.2645 401.276 70.7644C401.79 71.2189 402.378 71.6297 402.966 71.9871C404.12 72.688 405.558 73.0322 406.907 72.9976C407.625 72.9793 408.34 72.9858 409.036 72.7943C409.823 72.5777 410.601 72.2999 411.353 71.9841C412.386 71.5501 413.426 71.0973 414.381 70.5102C415.331 69.9267 416.198 69.1602 417.185 68.6507C417.406 68.5364 417.885 68.2302 418 68.0049" stroke="#8092DF" stroke-width="3" stroke-linecap="round"/>
<path d="M333.97 46.505C333.97 42.4645 334.04 38.4322 333.966 34.3908C333.925 32.2224 333.728 29.8498 332.821 27.86C332.101 26.2799 331.584 24.7592 330.509 23.3666C329.73 22.3578 328.906 21.1515 327.752 20.5289C326.796 20.0133 325.626 19.7327 324.578 19.4803C323.586 19.2411 322.578 19.1727 321.562 19.1032C320.842 19.0538 320.004 18.9032 319.292 19.094C318.203 19.3857 317.194 20.0661 316.243 20.6439C314.067 21.9658 312.07 24.6776 312.036 27.2713C312.014 28.9278 311.897 30.6686 312.254 32.2936C312.582 33.7894 313.079 35.3797 313.75 36.764C314.751 38.8274 316.043 40.7473 317.119 42.7705C317.753 43.9632 318.301 45.1869 318.902 46.3946C319.093 46.7778 319.334 47.168 319.5 47.5536C319.55 47.6684 319.792 48.047 319.792 47.9951" stroke="#B49BD1" stroke-width="3" stroke-linecap="round"/>
<path d="M89.0257 72.7112C89.0257 69.228 88.9652 65.7519 89.0298 62.2679C89.0644 60.3986 89.2349 58.3533 90.0181 56.6379C90.64 55.2758 91.0865 53.9649 92.0149 52.7643C92.6874 51.8947 93.3992 50.8547 94.3958 50.318C95.2213 49.8735 96.2321 49.6316 97.1369 49.414C97.9943 49.2078 98.8642 49.1489 99.7419 49.0889C100.364 49.0464 101.088 48.9166 101.703 49.081C102.643 49.3325 103.514 49.9191 104.336 50.4171C106.215 51.5567 107.94 53.8945 107.969 56.1304C107.988 57.5585 108.089 59.0592 107.781 60.46C107.497 61.7495 107.068 63.1205 106.489 64.3138C105.624 66.0926 104.508 67.7477 103.579 69.4918C103.032 70.52 102.558 71.5749 102.039 72.6161C101.874 72.9464 101.666 73.2828 101.523 73.6152C101.48 73.7141 101.27 74.0406 101.27 73.9958" stroke="#D78288" stroke-width="3" stroke-linecap="round"/>
<path d="M240.026 68.7112C240.026 65.228 239.965 61.7519 240.03 58.2679C240.064 56.3986 240.235 54.3533 241.018 52.6379C241.64 51.2758 242.086 49.9649 243.015 48.7643C243.687 47.8947 244.399 46.8547 245.396 46.318C246.221 45.8735 247.232 45.6316 248.137 45.414C248.994 45.2078 249.864 45.1489 250.742 45.0889C251.364 45.0464 252.088 44.9166 252.703 45.081C253.643 45.3325 254.514 45.9191 255.336 46.4171C257.215 47.5567 258.94 49.8945 258.969 52.1304C258.988 53.5585 259.089 55.0592 258.781 56.46C258.497 57.7495 258.068 59.1205 257.489 60.3138C256.624 62.0926 255.508 63.7477 254.579 65.4918C254.032 66.52 253.558 67.5749 253.039 68.6161C252.874 68.9464 252.666 69.2828 252.523 69.6152C252.48 69.7141 252.27 70.0406 252.27 69.9958" stroke="#D78288" stroke-width="3" stroke-linecap="round"/>
<path d="M160.02 54.0721C160.02 51.5642 159.973 49.0614 160.023 46.5529C160.051 45.207 160.185 43.7343 160.804 42.4993C161.295 41.5186 161.647 40.5747 162.38 39.7103C162.911 39.0842 163.473 38.3354 164.26 37.949C164.912 37.6289 165.71 37.4548 166.424 37.2981C167.101 37.1496 167.788 37.1072 168.48 37.064C168.972 37.0334 169.543 36.9399 170.028 37.0583C170.771 37.2394 171.459 37.6617 172.107 38.0203C173.591 38.8408 174.952 40.5241 174.976 42.1339C174.99 43.1621 175.07 44.2426 174.827 45.2512C174.603 46.1796 174.264 47.1667 173.807 48.0259C173.125 49.3067 172.243 50.4983 171.51 51.7541C171.078 52.4944 170.704 53.2539 170.294 54.0036C170.164 54.2414 170 54.4836 169.886 54.7229C169.852 54.7942 169.687 55.0292 169.687 54.997" stroke="#8092DF" stroke-width="3" stroke-linecap="round"/>
<path d="M423.02 54.0721C423.02 51.5642 422.973 49.0614 423.023 46.5529C423.051 45.207 423.185 43.7343 423.804 42.4993C424.295 41.5186 424.647 40.5747 425.38 39.7103C425.911 39.0842 426.473 38.3354 427.26 37.949C427.912 37.6289 428.71 37.4548 429.424 37.2981C430.101 37.1496 430.788 37.1072 431.48 37.064C431.972 37.0334 432.543 36.9399 433.028 37.0583C433.771 37.2394 434.459 37.6617 435.107 38.0203C436.591 38.8408 437.952 40.5241 437.976 42.1339C437.99 43.1621 438.07 44.2426 437.827 45.2512C437.603 46.1796 437.264 47.1667 436.807 48.0259C436.125 49.3067 435.243 50.4983 434.51 51.7541C434.078 52.4944 433.704 53.2539 433.294 54.0036C433.164 54.2414 433 54.4836 432.886 54.7229C432.852 54.7942 432.687 55.0292 432.687 54.997" stroke="#8092DF" stroke-width="3" stroke-linecap="round"/>
<path d="M319 47.9779C318.872 47.9515 318.797 47.7933 318.712 47.7092C318.362 47.3636 318.13 46.9809 317.73 46.6563C316.002 45.2535 313.98 44.1172 311.994 43.0644C308.155 41.0297 304.05 39.7536 299.591 40.04C297.721 40.1601 295.339 40.5722 294.046 41.9552C293.703 42.3216 293.334 42.6559 293.032 43.0557C292.691 43.5064 292.529 44.1538 292.338 44.6719C291.956 45.7097 291.957 46.9703 292.055 48.0559C292.179 49.4495 292.782 50.8292 293.343 52.1115C294.034 53.6876 295.13 55.2465 296.195 56.6263C297.103 57.8029 298.062 58.9372 299.498 59.5597C301.078 60.2446 302.94 60.7543 304.681 60.9072C307.392 61.1455 309.971 60.9734 312.431 59.8153C313.139 59.482 313.906 59.1264 314.646 58.8968" stroke="#B49BD1" stroke-width="3" stroke-linecap="round"/>
<path d="M102 74.2181C102.109 74.1942 102.173 74.0511 102.246 73.975C102.544 73.6623 102.741 73.3161 103.082 73.0224C104.554 71.7532 106.276 70.7251 107.968 69.7725C111.238 67.9316 114.735 66.7771 118.533 67.0362C120.126 67.1449 122.156 67.5177 123.257 68.7689C123.549 69.1005 123.864 69.4029 124.121 69.7647C124.411 70.1724 124.549 70.7582 124.712 71.2269C125.038 72.1659 125.036 73.3065 124.953 74.2886C124.847 75.5496 124.334 76.7979 123.856 77.958C123.268 79.384 122.334 80.7945 121.426 82.0429C120.653 83.1074 119.836 84.1336 118.613 84.6969C117.267 85.3165 115.681 85.7777 114.198 85.9161C111.888 86.1316 109.691 85.9759 107.596 84.9282C106.992 84.6265 106.339 84.3048 105.709 84.0971" stroke="#D78288" stroke-width="3" stroke-linecap="round"/>
<path d="M253 70.2181C253.109 70.1942 253.173 70.0511 253.246 69.975C253.544 69.6623 253.741 69.3161 254.082 69.0224C255.554 67.7532 257.276 66.7251 258.968 65.7725C262.238 63.9316 265.735 62.7771 269.533 63.0362C271.126 63.1449 273.156 63.5177 274.257 64.7689C274.549 65.1005 274.864 65.4029 275.121 65.7647C275.411 66.1724 275.549 66.7582 275.712 67.2269C276.038 68.1659 276.036 69.3065 275.953 70.2886C275.847 71.5496 275.334 72.7979 274.856 73.958C274.268 75.384 273.334 76.7945 272.426 78.0429C271.653 79.1074 270.836 80.1336 269.613 80.6969C268.267 81.3165 266.681 81.7777 265.198 81.9161C262.888 82.1316 260.691 81.9759 258.596 80.9282C257.992 80.6265 257.339 80.3048 256.709 80.0971" stroke="#D78288" stroke-width="3" stroke-linecap="round"/>
<path d="M170 55.3186C170.085 55.301 170.136 55.1955 170.192 55.1395C170.426 54.909 170.58 54.654 170.847 54.4376C171.998 53.5024 173.347 52.7448 174.671 52.0429C177.23 50.6864 179.967 49.8357 182.939 50.0267C184.186 50.1068 185.774 50.3814 186.636 51.3034C186.865 51.5477 187.111 51.7706 187.312 52.0371C187.539 52.3376 187.647 52.7692 187.774 53.1146C188.029 53.8065 188.028 54.6469 187.964 55.3706C187.88 56.2997 187.479 57.2195 187.104 58.0743C186.644 59.125 185.913 60.1643 185.203 61.0842C184.598 61.8686 183.958 62.6248 183.001 63.0398C181.948 63.4964 180.707 63.8362 179.546 63.9382C177.738 64.097 176.019 63.9823 174.379 63.2102C173.907 62.988 173.396 62.7509 172.903 62.5978" stroke="#8092DF" stroke-width="3" stroke-linecap="round"/>
<path d="M433 55.3186C433.085 55.301 433.136 55.1955 433.192 55.1395C433.426 54.909 433.58 54.654 433.847 54.4376C434.998 53.5024 436.347 52.7448 437.671 52.0429C440.23 50.6864 442.967 49.8357 445.939 50.0267C447.186 50.1068 448.774 50.3814 449.636 51.3034C449.865 51.5477 450.111 51.7706 450.312 52.0371C450.539 52.3376 450.647 52.7692 450.774 53.1146C451.029 53.8065 451.028 54.6469 450.964 55.3706C450.88 56.2997 450.479 57.2195 450.104 58.0743C449.644 59.125 448.913 60.1643 448.203 61.0842C447.598 61.8686 446.958 62.6248 446.001 63.0398C444.948 63.4964 443.707 63.8362 442.546 63.9382C440.738 64.097 439.019 63.9823 437.379 63.2102C436.907 62.988 436.396 62.7509 435.903 62.5978" stroke="#8092DF" stroke-width="3" stroke-linecap="round"/>
<path d="M315.153 59C315.005 59.0165 314.854 59.157 314.736 59.2348C314.303 59.5206 313.846 59.7762 313.441 60.1015C312.496 60.8594 311.533 61.6298 310.513 62.2866C310.21 62.482 309.924 62.6782 309.625 62.8825C309.226 63.1563 308.737 63.2416 308.334 63.5281C307.123 64.3897 305.962 65.5744 305.081 66.765C304.691 67.2908 304.321 67.8279 303.98 68.3857C303.653 68.9183 303.255 69.4138 303.182 70.0515C303.057 71.1571 302.992 72.232 303.001 73.3471C303.009 74.374 303.126 75.5835 303.495 76.5479C303.995 77.8564 304.945 78.7734 305.973 79.7081C307.851 81.415 310.522 81.9969 312.987 81.9969C314.324 81.9969 315.574 82.0639 316.839 81.5726C318.167 81.0566 319.27 80.1551 320.355 79.2521C321.066 78.6606 321.73 77.6221 322.118 76.7917C322.632 75.6906 322.804 74.626 322.942 73.4374C323.02 72.7748 322.983 72.0993 322.983 71.433C322.983 71.0148 323.055 70.5155 322.902 70.1328" stroke="#B49BD1" stroke-width="3" stroke-linecap="round"/>
<path d="M105.062 84.485C105.196 84.4994 105.331 84.6215 105.437 84.6892C105.827 84.9378 106.239 85.16 106.603 85.4429C107.453 86.1019 108.32 86.7718 109.238 87.3429C109.511 87.5129 109.769 87.6835 110.037 87.8611C110.397 88.0992 110.837 88.1734 111.199 88.4225C112.289 89.1717 113.334 90.2019 114.127 91.2372C114.478 91.6944 114.811 92.1615 115.118 92.6465C115.412 93.1097 115.771 93.5405 115.836 94.0951C115.949 95.0565 116.008 95.9911 115.999 96.9608C115.991 97.8538 115.887 98.9055 115.555 99.7441C115.104 100.882 114.25 101.679 113.324 102.492C111.634 103.976 109.23 104.482 107.011 104.482C105.808 104.482 104.683 104.541 103.545 104.113C102.349 103.665 101.357 102.881 100.38 102.096C99.7406 101.581 99.1433 100.678 98.7941 99.9561C98.3311 98.9986 98.1768 98.0729 98.0519 97.0393C97.9823 96.4632 98.0152 95.8757 98.0152 95.2963C98.0152 94.9327 97.9503 94.4985 98.0886 94.1657" stroke="#D78288" stroke-width="3" stroke-linecap="round"/>
<path d="M256.062 80.485C256.196 80.4994 256.331 80.6215 256.437 80.6892C256.827 80.9378 257.239 81.16 257.603 81.4429C258.453 82.1019 259.32 82.7718 260.238 83.3429C260.511 83.5129 260.769 83.6835 261.037 83.8611C261.397 84.0992 261.837 84.1734 262.199 84.4225C263.289 85.1717 264.334 86.2019 265.127 87.2372C265.478 87.6944 265.811 88.1615 266.118 88.6465C266.412 89.1097 266.771 89.5405 266.836 90.0951C266.949 91.0565 267.008 91.9911 266.999 92.9608C266.991 93.8538 266.887 94.9055 266.555 95.7441C266.104 96.8819 265.25 97.6793 264.324 98.4921C262.634 99.9764 260.23 100.482 258.011 100.482C256.808 100.482 255.683 100.541 254.545 100.113C253.349 99.6647 252.357 98.8808 251.38 98.0956C250.741 97.5812 250.143 96.6781 249.794 95.9561C249.331 94.9986 249.177 94.0729 249.052 93.0393C248.982 92.4632 249.015 91.8757 249.015 91.2963C249.015 90.9327 248.95 90.4985 249.089 90.1657" stroke="#D78288" stroke-width="3" stroke-linecap="round"/>
<path d="M172.493 63C172.597 63.0107 172.702 63.1024 172.784 63.1531C173.088 63.3395 173.408 63.5062 173.692 63.7184C174.353 64.2126 175.027 64.7151 175.741 65.1434C175.953 65.2709 176.154 65.3988 176.362 65.5321C176.642 65.7106 176.984 65.7663 177.266 65.9531C178.114 66.515 178.926 67.2876 179.544 68.0641C179.816 68.407 180.075 68.7573 180.314 69.1211C180.543 69.4685 180.822 69.7916 180.873 70.2075C180.96 70.9286 181.006 71.6296 180.999 72.3568C180.993 73.0265 180.912 73.8154 180.654 74.4443C180.303 75.2977 179.639 75.8957 178.919 76.5053C177.604 77.6185 175.734 77.998 174.009 77.998C173.073 77.998 172.198 78.0417 171.313 77.7212C170.383 77.3847 169.611 76.7968 168.851 76.2079C168.354 75.8221 167.889 75.1448 167.618 74.6033C167.257 73.8851 167.137 73.1909 167.04 72.4157C166.986 71.9836 167.012 71.543 167.012 71.1085C167.012 70.8357 166.961 70.5101 167.069 70.2605" stroke="#8092DF" stroke-width="3" stroke-linecap="round"/>
<path d="M435.493 63C435.597 63.0107 435.702 63.1024 435.784 63.1531C436.088 63.3395 436.408 63.5062 436.692 63.7184C437.353 64.2126 438.027 64.7151 438.741 65.1434C438.953 65.2709 439.154 65.3988 439.362 65.5321C439.642 65.7106 439.984 65.7663 440.266 65.9531C441.114 66.515 441.926 67.2876 442.544 68.0641C442.816 68.407 443.075 68.7573 443.314 69.1211C443.543 69.4685 443.822 69.7916 443.873 70.2075C443.96 70.9286 444.006 71.6296 443.999 72.3568C443.993 73.0265 443.912 73.8154 443.654 74.4443C443.303 75.2977 442.639 75.8957 441.919 76.5053C440.604 77.6185 438.734 77.998 437.009 77.998C436.073 77.998 435.198 78.0417 434.313 77.7212C433.383 77.3847 432.611 76.7968 431.851 76.2079C431.354 75.8221 430.889 75.1448 430.618 74.6033C430.257 73.8851 430.137 73.1909 430.04 72.4157C429.986 71.9836 430.012 71.543 430.012 71.1085C430.012 70.8357 429.961 70.5101 430.069 70.2605" stroke="#8092DF" stroke-width="3" stroke-linecap="round"/>
<path d="M324.197 71.5671C323.897 71.9401 324.031 72.8945 324.022 73.3554C324.016 73.6886 324.022 74.0226 324.022 74.3559C324.022 75.5578 324.3 76.688 324.377 77.8747C324.41 78.3902 324.667 79.0116 324.828 79.5035C325.075 80.2602 325.467 80.947 325.842 81.6447C326.464 82.8004 327.088 83.9446 327.997 84.9169C329.747 86.7883 331.989 87.8288 334.399 88.6C335.574 88.9761 336.792 88.8685 338.01 88.948C338.686 88.9922 339.502 89.0699 340.155 88.8658C341.024 88.5944 341.903 88.203 342.717 87.7977C343.259 87.5278 343.647 87.0514 344.135 86.7053C344.541 86.4169 344.965 86.0721 345.295 85.6951C346.316 84.5269 347.049 82.9772 347.527 81.5191C347.973 80.1582 348.17 78.58 347.823 77.169C347.502 75.8594 347.091 74.3302 346.464 73.1331C345.607 71.4962 344.562 70.1082 343.096 69.0053C342.696 68.7046 342.4 68.5078 341.951 68.3287C341.696 68.2274 341.548 68 341.232 68" stroke="#B49BD1" stroke-width="3" stroke-linecap="round"/>
<path d="M97.8277 94.5425C98.0899 94.8623 97.9727 95.6803 97.9805 96.0754C97.9862 96.361 97.9805 96.6473 97.9805 96.933C97.9805 97.9632 97.7378 98.9319 97.6705 99.949C97.6413 100.391 97.4162 100.924 97.2756 101.345C97.0593 101.994 96.7164 102.582 96.388 103.181C95.844 104.171 95.2979 105.152 94.5025 105.985C92.9717 107.589 91.0092 108.481 88.9011 109.142C87.8731 109.465 86.807 109.372 85.7415 109.44C85.1499 109.478 84.4359 109.545 83.8645 109.37C83.1044 109.137 82.3345 108.802 81.6222 108.454C81.1481 108.223 80.809 107.815 80.3822 107.518C80.0266 107.271 79.6557 106.975 79.3673 106.652C78.4733 105.651 77.8321 104.323 77.4138 103.073C77.0234 101.906 76.8517 100.554 77.1547 99.3442C77.436 98.2217 77.795 96.911 78.3438 95.8848C79.0942 94.4818 80.0086 93.2921 81.291 92.3468C81.6407 92.089 81.8998 91.9203 82.2932 91.7668C82.5157 91.68 82.6451 91.485 82.9217 91.485" stroke="#D78288" stroke-width="3" stroke-linecap="round"/>
<path d="M248.828 90.5425C249.09 90.8623 248.973 91.6803 248.981 92.0754C248.986 92.361 248.981 92.6473 248.981 92.933C248.981 93.9632 248.738 94.9319 248.671 95.949C248.641 96.3909 248.416 96.9235 248.276 97.3452C248.059 97.9938 247.716 98.5825 247.388 99.1805C246.844 100.171 246.298 101.152 245.502 101.985C243.972 103.589 242.009 104.481 239.901 105.142C238.873 105.465 237.807 105.372 236.742 105.44C236.15 105.478 235.436 105.545 234.865 105.37C234.104 105.137 233.334 104.802 232.622 104.454C232.148 104.223 231.809 103.815 231.382 103.518C231.027 103.271 230.656 102.975 230.367 102.652C229.473 101.651 228.832 100.323 228.414 99.0728C228.023 97.9064 227.852 96.5536 228.155 95.3442C228.436 94.2217 228.795 92.911 229.344 91.8848C230.094 90.4818 231.009 89.2921 232.291 88.3468C232.641 88.089 232.9 87.9203 233.293 87.7668C233.516 87.68 233.645 87.485 233.922 87.485" stroke="#D78288" stroke-width="3" stroke-linecap="round"/>
<path d="M166.869 70.2082C167.068 70.4391 166.979 71.0299 166.985 71.3153C166.989 71.5215 166.985 71.7283 166.985 71.9346C166.985 72.6786 166.8 73.3783 166.749 74.1129C166.727 74.432 166.555 74.8167 166.448 75.1212C166.283 75.5897 166.022 76.0148 165.772 76.4467C165.357 77.1622 164.941 77.8704 164.335 78.4724C163.169 79.6309 161.674 80.275 160.068 80.7524C159.284 80.9852 158.472 80.9186 157.66 80.9678C157.209 80.9951 156.665 81.0433 156.23 80.9169C155.651 80.7489 155.064 80.5066 154.522 80.2557C154.16 80.0886 153.902 79.7937 153.577 79.5795C153.306 79.4009 153.023 79.1875 152.804 78.9541C152.122 78.2309 151.634 77.2716 151.315 76.3689C151.018 75.5265 150.887 74.5495 151.118 73.676C151.332 72.8653 151.606 71.9187 152.024 71.1776C152.596 70.1643 153.292 69.3051 154.269 68.6224C154.536 68.4362 154.733 68.3143 155.033 68.2035C155.202 68.1408 155.301 68 155.512 68" stroke="#8092DF" stroke-width="3" stroke-linecap="round"/>
<path d="M429.869 70.2082C430.068 70.4391 429.979 71.0299 429.985 71.3153C429.989 71.5215 429.985 71.7283 429.985 71.9346C429.985 72.6786 429.8 73.3783 429.749 74.1129C429.727 74.432 429.555 74.8167 429.448 75.1212C429.283 75.5897 429.022 76.0148 428.772 76.4467C428.357 77.1622 427.941 77.8704 427.335 78.4724C426.169 79.6309 424.674 80.275 423.068 80.7524C422.284 80.9852 421.472 80.9186 420.66 80.9678C420.209 80.9951 419.665 81.0433 419.23 80.9169C418.651 80.7489 418.064 80.5066 417.522 80.2557C417.16 80.0886 416.902 79.7937 416.577 79.5795C416.306 79.4009 416.023 79.1875 415.804 78.9541C415.122 78.2309 414.634 77.2716 414.315 76.3689C414.018 75.5265 413.887 74.5495 414.118 73.676C414.332 72.8653 414.606 71.9187 415.024 71.1776C415.596 70.1643 416.292 69.3051 417.269 68.6224C417.536 68.4362 417.733 68.3143 418.033 68.2035C418.202 68.1408 418.301 68 418.512 68" stroke="#8092DF" stroke-width="3" stroke-linecap="round"/>
<path d="M330 120C330 119.016 330.004 118.034 330.144 117.057C330.423 115.126 330.947 113.252 331.463 111.369C331.943 109.619 332.333 107.91 333.179 106.279C333.949 104.793 334.812 103.323 335.789 101.95C336.939 100.334 338.566 98.8479 340.336 97.862C341.231 97.363 342.129 96.8475 343.053 96.3994C343.321 96.2696 343.682 96 344 96" stroke="#BEEAB8" stroke-width="3" stroke-linecap="round"/>
<path d="M92 136.485C92 135.624 91.9968 134.765 91.8762 133.91C91.6375 132.22 91.1881 130.58 90.7457 128.933C90.3348 127.402 90.0003 125.906 89.2754 124.479C88.6151 123.179 87.8756 121.892 87.0382 120.691C86.0521 119.277 84.6575 117.977 83.141 117.114C82.3734 116.678 81.6041 116.227 80.8116 115.835C80.5821 115.721 80.2727 115.485 80 115.485" stroke="#BEEAB8" stroke-width="3" stroke-linecap="round"/>
<path d="M243 132.485C243 131.624 242.997 130.765 242.876 129.91C242.637 128.22 242.188 126.58 241.746 124.933C241.335 123.402 241 121.906 240.275 120.479C239.615 119.179 238.876 117.892 238.038 116.691C237.052 115.277 235.657 113.977 234.141 113.114C233.373 112.678 232.604 112.227 231.812 111.835C231.582 111.721 231.273 111.485 231 111.485" stroke="#BEEAB8" stroke-width="3" stroke-linecap="round"/>
<path d="M162 101C162 100.385 161.998 99.7711 161.907 99.1608C161.728 97.9536 161.391 96.7823 161.059 95.6054C160.751 94.5119 160.5 93.4438 159.957 92.4244C159.461 91.4958 158.907 90.5766 158.279 89.7188C157.539 88.7086 156.493 87.7799 155.356 87.1637C154.78 86.8518 154.203 86.5297 153.609 86.2496C153.437 86.1685 153.205 86 153 86" stroke="#BEEAB8" stroke-width="3" stroke-linecap="round"/>
<path d="M425 101C425 100.385 424.998 99.7711 424.907 99.1608C424.728 97.9536 424.391 96.7823 424.059 95.6054C423.751 94.5119 423.5 93.4438 422.957 92.4244C422.461 91.4958 421.907 90.5766 421.279 89.7188C420.539 88.7086 419.493 87.7799 418.356 87.1637C417.78 86.8518 417.203 86.5297 416.609 86.2496C416.437 86.1685 416.205 86 416 86" stroke="#BEEAB8" stroke-width="3" stroke-linecap="round"/>
<path d="M344.318 96C344.318 96.4782 344.355 96.9288 344.446 97.3997C344.57 98.0421 344.511 98.7025 344.659 99.335C344.963 100.63 345 102.07 345 103.393C345 107.162 345.024 110.768 343.636 114.347C343.058 115.836 342.438 117.444 341.499 118.748C340.65 119.927 340.083 121.113 338.898 122.003C337.738 122.875 336.542 123.801 335.232 124.427C334.896 124.587 334.18 124.644 334 125" stroke="#BEEAB8" stroke-width="3" stroke-linecap="round"/>
<path d="M79.6202 115.485C79.6202 115.914 79.5866 116.318 79.5039 116.74C79.3911 117.316 79.445 117.908 79.3101 118.475C79.034 119.636 79 120.927 79 122.113C79 125.493 78.9783 128.725 80.2403 131.934C80.7655 133.269 81.3288 134.711 82.1826 135.88C82.9546 136.937 83.47 138.001 84.547 138.798C85.6019 139.58 86.6892 140.411 87.8803 140.971C88.1857 141.115 88.8368 141.166 89 141.485" stroke="#BEEAB8" stroke-width="3" stroke-linecap="round"/>
<path d="M230.62 111.485C230.62 111.914 230.587 112.318 230.504 112.74C230.391 113.316 230.445 113.908 230.31 114.475C230.034 115.636 230 116.927 230 118.113C230 121.493 229.978 124.725 231.24 127.934C231.765 129.269 232.329 130.711 233.183 131.88C233.955 132.937 234.47 134.001 235.547 134.798C236.602 135.58 237.689 136.411 238.88 136.971C239.186 137.115 239.837 137.166 240 137.485" stroke="#BEEAB8" stroke-width="3" stroke-linecap="round"/>
<path d="M152.496 86C152.496 86.3133 152.469 86.6085 152.403 86.9171C152.313 87.338 152.356 87.7706 152.248 88.185C152.027 89.0334 152 89.9767 152 90.8439C152 93.3133 151.983 95.6757 152.992 98.0204C153.412 98.9961 153.863 100.05 154.546 100.904C155.164 101.676 155.576 102.454 156.438 103.037C157.281 103.608 158.151 104.215 159.104 104.625C159.349 104.73 159.869 104.767 160 105" stroke="#BEEAB8" stroke-width="3" stroke-linecap="round"/>
<path d="M415.496 86C415.496 86.3133 415.469 86.6085 415.403 86.9171C415.313 87.338 415.356 87.7706 415.248 88.185C415.027 89.0334 415 89.9767 415 90.8439C415 93.3133 414.983 95.6757 415.992 98.0204C416.412 98.9961 416.863 100.05 417.546 100.904C418.164 101.676 418.576 102.454 419.438 103.037C420.281 103.608 421.151 104.215 422.104 104.625C422.349 104.73 422.869 104.767 423 105" stroke="#BEEAB8" stroke-width="3" stroke-linecap="round"/>
<path d="M326 110C325.574 109.547 325.314 108.809 325.071 108.251C324.554 107.063 323.844 105.813 322.962 104.831C320.901 102.54 317.993 101.407 315.32 99.9526C314.567 99.5431 313.764 99.2702 312.973 98.9382C312.031 98.5427 311.093 98.1171 310.101 97.8465C308.873 97.5118 307.523 97.1426 306.245 97.064C305.302 97.006 304.245 96.9551 303.307 97.064C302.943 97.1063 302.899 97.2027 303.196 97.3924" stroke="#BEEAB8" stroke-width="3" stroke-linecap="round"/>
<path d="M96 128.485C96.3701 128.067 96.5964 127.386 96.8076 126.871C97.2573 125.774 97.8744 124.62 98.6422 123.714C100.434 121.599 102.962 120.553 105.287 119.211C105.942 118.833 106.64 118.581 107.328 118.274C108.147 117.909 108.962 117.516 109.825 117.266C110.893 116.958 112.067 116.617 113.179 116.544C113.998 116.491 114.917 116.444 115.733 116.544C116.05 116.583 116.088 116.672 115.829 116.847" stroke="#BEEAB8" stroke-width="3" stroke-linecap="round"/>
<path d="M247 124.485C247.37 124.067 247.596 123.386 247.808 122.871C248.257 121.774 248.874 120.62 249.642 119.714C251.434 117.599 253.962 116.553 256.287 115.211C256.942 114.833 257.64 114.581 258.328 114.274C259.147 113.909 259.962 113.516 260.825 113.266C261.893 112.958 263.067 112.617 264.179 112.544C264.998 112.491 265.917 112.444 266.733 112.544C267.05 112.583 267.088 112.672 266.829 112.847" stroke="#BEEAB8" stroke-width="3" stroke-linecap="round"/>
<path d="M165 95C165.296 94.7215 165.477 94.2672 165.646 93.9239C166.006 93.1929 166.5 92.4235 167.114 91.8193C168.547 90.4092 170.57 89.7118 172.43 88.817C172.953 88.565 173.512 88.397 174.062 88.1927C174.718 87.9494 175.37 87.6874 176.06 87.5209C176.914 87.315 177.854 87.0878 178.743 87.0394C179.399 87.0037 180.134 86.9724 180.786 87.0394C181.04 87.0654 181.07 87.1247 180.864 87.2415" stroke="#BEEAB8" stroke-width="3" stroke-linecap="round"/>
<path d="M428 95C428.296 94.7215 428.477 94.2672 428.646 93.9239C429.006 93.1929 429.5 92.4235 430.114 91.8193C431.547 90.4092 433.57 89.7118 435.43 88.817C435.953 88.565 436.512 88.397 437.062 88.1927C437.718 87.9494 438.37 87.6874 439.06 87.5209C439.914 87.315 440.854 87.0878 441.743 87.0394C442.399 87.0037 443.134 86.9724 443.786 87.0394C444.04 87.0654 444.07 87.1247 443.864 87.2415" stroke="#BEEAB8" stroke-width="3" stroke-linecap="round"/>
<path d="M303 97C303.03 97.5783 303.454 98.1595 303.695 98.6798C304.039 99.4237 304.354 100.171 304.709 100.911C305.149 101.827 305.544 102.721 306.022 103.621C306.582 104.675 307.394 105.721 308.148 106.66C309.79 108.707 311.843 110.304 314.022 111.803C315.802 113.027 317.91 114.154 320.05 114.645C321.775 115.041 323.561 114.911 325.286 114.911C325.75 114.911 326.686 114.4 327 115" stroke="#BEEAB8" stroke-width="3" stroke-linecap="round"/>
<path d="M116 116.485C115.974 116.999 115.602 117.516 115.392 117.978C115.091 118.639 114.816 119.304 114.505 119.962C114.12 120.776 113.774 121.57 113.356 122.37C112.866 123.307 112.155 124.237 111.495 125.072C110.059 126.891 108.263 128.311 106.356 129.643C104.798 130.732 102.954 131.733 101.081 132.17C99.5721 132.522 98.0094 132.406 96.5 132.406C96.0935 132.406 95.2743 131.952 95 132.485" stroke="#BEEAB8" stroke-width="3" stroke-linecap="round"/>
<path d="M267 112.485C266.974 112.999 266.602 113.516 266.392 113.978C266.091 114.639 265.816 115.304 265.505 115.962C265.12 116.776 264.774 117.57 264.356 118.37C263.866 119.307 263.155 120.237 262.495 121.072C261.059 122.891 259.263 124.311 257.356 125.643C255.798 126.732 253.954 127.733 252.081 128.17C250.572 128.522 249.009 128.406 247.5 128.406C247.094 128.406 246.274 127.952 246 128.485" stroke="#BEEAB8" stroke-width="3" stroke-linecap="round"/>
<path d="M181 87C180.98 87.3534 180.697 87.7086 180.537 88.0265C180.307 88.4812 180.098 88.9378 179.861 89.3903C179.567 89.9501 179.304 90.4962 178.985 91.046C178.612 91.69 178.07 92.3295 177.568 92.9034C176.473 94.154 175.105 95.1303 173.652 96.0463C172.465 96.7946 171.06 97.4829 169.633 97.7833C168.484 98.0253 167.293 97.9458 166.143 97.9458C165.833 97.9458 165.209 97.6333 165 98" stroke="#BEEAB8" stroke-width="3" stroke-linecap="round"/>
<path d="M444 87C443.98 87.3534 443.697 87.7086 443.537 88.0265C443.307 88.4812 443.098 88.9378 442.861 89.3903C442.567 89.9501 442.304 90.4962 441.985 91.046C441.612 91.69 441.07 92.3295 440.568 92.9034C439.473 94.154 438.105 95.1303 436.652 96.0463C435.465 96.7946 434.06 97.4829 432.633 97.7833C431.484 98.0253 430.293 97.9458 429.143 97.9458C428.833 97.9458 428.209 97.6333 428 98" stroke="#BEEAB8" stroke-width="3" stroke-linecap="round"/>
<path d="M319.721 47.9549C319.05 48.1708 318.255 48.9678 317.915 49.564C317.268 50.6985 316.33 51.6513 316.211 52.995C316.062 54.6895 315.817 56.4201 316.221 58.1094C316.881 60.8669 318.196 63.6639 319.773 66.0409C321.128 68.0846 322.445 69.6815 324.72 70.779C325.73 71.2662 326.692 71.7296 327.825 71.8781C328.99 72.0308 330.131 72.0335 331.299 71.9226C333.487 71.7151 335.551 70.8387 337.421 69.7343C338.207 69.2707 339.042 68.868 339.582 68.1252C340.178 67.306 340.898 66.5234 341.378 65.6349C342.319 63.8924 343.013 62.1679 343 60.1938C342.988 58.4051 342.773 56.7473 342.209 55.0447C341.697 53.4965 340.486 51.8715 339.264 50.777C338.212 49.835 336.907 49.1326 335.692 48.4104C334.838 47.9026 333.922 47.4489 332.962 47.1529C329.89 46.2057 326.684 45.5211 323.509 46.4201C322.578 46.6836 321.698 46.8281 320.85 47.2915C320.517 47.4738 319.76 47.6638 319.629 48.0441" stroke="#FFE5A4" stroke-width="3" stroke-linecap="round"/>
<path d="M101.692 75.579C102.289 75.7534 102.996 76.3971 103.298 76.8786C103.873 77.7949 104.707 78.5645 104.812 79.6498C104.945 81.0184 105.163 82.4162 104.803 83.7807C104.217 86.0079 103.048 88.267 101.647 90.1869C100.442 91.8376 99.2714 93.1274 97.2491 94.0138C96.3512 94.4073 95.4964 94.7816 94.4892 94.9015C93.4531 95.0249 92.4393 95.0271 91.4009 94.9375C89.4564 94.7699 87.6216 94.062 85.9588 93.17C85.2608 92.7956 84.5186 92.4703 84.0383 91.8704C83.5086 91.2087 82.8683 90.5766 82.4417 89.859C81.605 88.4516 80.9881 87.0587 81.0002 85.4642C81.0111 84.0195 81.2017 82.6805 81.7027 81.3054C82.1582 80.0549 83.2351 78.7424 84.3211 77.8583C85.2559 77.0975 86.4164 76.5302 87.4961 75.9469C88.2553 75.5367 89.0696 75.1703 89.9229 74.9312C92.6529 74.1661 95.5032 73.6132 98.3256 74.3393C99.1528 74.5521 99.9351 74.6688 100.689 75.0431C100.985 75.1904 101.658 75.3438 101.774 75.651" stroke="#FFE5A4" stroke-width="3" stroke-linecap="round"/>
<path d="M252.692 71.579C253.289 71.7534 253.996 72.3971 254.298 72.8786C254.873 73.7949 255.707 74.5645 255.812 75.6498C255.945 77.0184 256.163 78.4162 255.803 79.7807C255.217 82.0079 254.048 84.267 252.647 86.1869C251.442 87.8376 250.271 89.1274 248.249 90.0138C247.351 90.4073 246.496 90.7816 245.489 90.9015C244.453 91.0249 243.439 91.0271 242.401 90.9375C240.456 90.7699 238.622 90.062 236.959 89.17C236.261 88.7956 235.519 88.4703 235.038 87.8704C234.509 87.2087 233.868 86.5766 233.442 85.859C232.605 84.4516 231.988 83.0587 232 81.4642C232.011 80.0195 232.202 78.6805 232.703 77.3054C233.158 76.0549 234.235 74.7424 235.321 73.8583C236.256 73.0975 237.416 72.5302 238.496 71.9469C239.255 71.5367 240.07 71.1703 240.923 70.9312C243.653 70.1661 246.503 69.6132 249.326 70.3393C250.153 70.5521 250.935 70.6688 251.689 71.0431C251.985 71.1904 252.658 71.3438 252.774 71.651" stroke="#FFE5A4" stroke-width="3" stroke-linecap="round"/>
<path d="M169.519 56.203C169.967 56.3359 170.497 56.8264 170.723 57.1932C171.155 57.8914 171.78 58.4778 171.859 59.3046C171.959 60.3474 172.122 61.4124 171.852 62.4519C171.413 64.1488 170.536 65.8701 169.485 67.3328C168.581 68.5905 167.704 69.5733 166.187 70.2486C165.513 70.5484 164.872 70.8336 164.117 70.925C163.34 71.019 162.579 71.0206 161.801 70.9524C160.342 70.8246 158.966 70.2853 157.719 69.6057C157.196 69.3205 156.639 69.0726 156.279 68.6155C155.881 68.1114 155.401 67.6298 155.081 67.083C154.454 66.0107 153.991 64.9495 154 63.7346C154.008 62.6339 154.151 61.6137 154.527 60.566C154.869 59.6133 155.676 58.6132 156.491 57.9397C157.192 57.36 158.062 56.9277 158.872 56.4833C159.442 56.1708 160.052 55.8916 160.692 55.7095C162.74 55.1266 164.877 54.7053 166.994 55.2585C167.615 55.4207 168.201 55.5096 168.766 55.7948C168.989 55.907 169.493 56.0239 169.581 56.2579" stroke="#FFE5A4" stroke-width="3" stroke-linecap="round"/>
<path d="M432.519 56.203C432.967 56.3359 433.497 56.8264 433.723 57.1932C434.155 57.8914 434.78 58.4778 434.859 59.3046C434.959 60.3474 435.122 61.4124 434.852 62.4519C434.413 64.1488 433.536 65.8701 432.485 67.3328C431.581 68.5905 430.704 69.5733 429.187 70.2486C428.513 70.5484 427.872 70.8336 427.117 70.925C426.34 71.019 425.579 71.0206 424.801 70.9524C423.342 70.8246 421.966 70.2853 420.719 69.6057C420.196 69.3205 419.639 69.0726 419.279 68.6155C418.881 68.1114 418.401 67.6298 418.081 67.083C417.454 66.0107 416.991 64.9495 417 63.7346C417.008 62.6339 417.151 61.6137 417.527 60.566C417.869 59.6133 418.676 58.6132 419.491 57.9397C420.192 57.36 421.062 56.9277 421.872 56.4833C422.442 56.1708 423.052 55.8916 423.692 55.7095C425.74 55.1266 427.877 54.7053 429.994 55.2585C430.615 55.4207 431.201 55.5096 431.766 55.7948C431.989 55.907 432.493 56.0239 432.581 56.2579" stroke="#FFE5A4" stroke-width="3" stroke-linecap="round"/>
</svg>
